<svg xmlns="http://www.w3.org/2000/svg" width="192" height="192" fill="none" xmlns:v="https://vecta.io/nano"><g clip-path="url(#A)"><circle cx="96" cy="96" r="96" fill="#fff"/><circle cx="96" cy="96" r="90" fill="#000"/><circle cx="96" cy="96" r="78" fill="#7169c3"/><g fill="#fff"><path d="M95.999 10c11.006 0 19.928 8.923 19.928 19.931s-8.922 19.931-19.928 19.931-19.928-8.923-19.928-19.931S84.994 10 95.999 10zm65.177 59.499c-14.612 3.45-28.328 6.522-41.9 8.311-2.028.267-3.558 2.013-3.53 4.058.663 49.35 6.128 63.128 12.461 79.094l1.359 3.444a9.97 9.97 0 0 1-5.656 12.908c-5.126 2.003-10.904-.53-12.906-5.656l-1.475-3.743c-4.144-10.467-8.029-20.279-10.605-38.016-.144-.989-.989-1.728-1.989-1.728h-1.871c-1 0-1.845.739-1.989 1.728-2.579 17.754-6.471 27.58-10.634 38.092l-1.446 3.667c-2.001 5.124-7.778 7.66-12.906 5.656a9.97 9.97 0 0 1-5.656-12.908l1.371-3.475c6.32-15.939 11.785-29.721 12.449-79.063a4.06 4.06 0 0 0-3.531-4.058c-13.571-1.789-27.288-4.86-41.9-8.311a8.86 8.86 0 0 1-6.584-10.657 8.86 8.86 0 0 1 10.655-6.585c53.521 12.639 68.797 12.613 122.212 0a8.86 8.86 0 0 1 10.655 6.585 8.86 8.86 0 0 1-6.585 10.657z"/></g><path fill-rule="evenodd" d="M63.805 160.931c6.32-15.939 11.785-29.721 12.449-79.063a4.06 4.06 0 0 0-3.53-4.058c-13.571-1.789-27.288-4.86-41.9-8.311a8.86 8.86 0 0 1-6.584-10.657 8.86 8.86 0 0 1 10.655-6.585c53.521 12.639 68.797 12.613 122.212 0a8.86 8.86 0 0 1 10.655 6.585 8.86 8.86 0 0 1-6.585 10.657c-14.612 3.45-28.329 6.522-41.9 8.311-2.028.267-3.558 2.013-3.53 4.058.663 49.35 6.128 63.128 12.461 79.094l1.359 3.444a9.97 9.97 0 0 1-5.656 12.908c-5.126 2.003-10.904-.53-12.907-5.656l-1.474-3.743c-3.571-9.02-6.95-17.553-9.464-31.091l-.48-2.71-.532-3.346-.128-.869c-.144-.989-.989-1.728-1.989-1.728h-1.871c-1 0-1.845.739-1.989 1.728l-.128.869-.533 3.346-.48 2.71c-2.518 13.556-5.905 22.107-9.493 31.167l-1.446 3.667c-2.001 5.124-7.777 7.66-12.906 5.656a9.97 9.97 0 0 1-5.656-12.908l1.371-3.475zM96 154.011l-.935 2.964c-1.647 5.028-3.409 9.476-5.184 13.958l-.001.004-1.432 3.631c-3.618 9.241-14.026 13.809-23.269 10.198a17.97 17.97 0 0 1-10.196-23.27l.01-.026 1.376-3.488c3.128-7.89 5.837-14.741 7.927-25.572 2.012-10.429 3.482-24.751 3.903-47.154-12.862-1.886-25.804-4.805-39.214-7.971-9.061-2.14-14.671-11.22-12.532-20.281a16.86 16.86 0 0 1 20.28-12.533c18.08 4.27 31.446 7.002 43.216 8.32-7.184-5.054-11.878-13.409-11.878-22.86C68.071 14.506 80.574 2 95.999 2s27.928 12.506 27.928 27.931c0 9.453-4.696 17.81-11.882 22.864 11.777-1.318 25.138-4.053 43.222-8.324a16.86 16.86 0 0 1 20.28 12.533l.001.002c2.136 9.059-3.472 18.14-12.534 20.279M96 154.011l.935 2.964c1.639 5.001 3.389 9.424 5.152 13.876l1.465 3.717a17.97 17.97 0 0 0 23.269 10.198 17.97 17.97 0 0 0 10.197-23.27l-.011-.027-1.359-3.444-.005-.012c-3.135-7.905-5.847-14.762-7.938-25.596-2.013-10.432-3.483-24.755-3.904-47.161 12.862-1.886 25.804-4.805 39.213-7.971m-47.087-47.354c0-11.007-8.922-19.931-19.928-19.931s-19.928 8.923-19.928 19.931 8.922 19.931 19.928 19.931 19.928-8.923 19.928-19.931z" fill="#000"/></g><defs><clipPath id="A"><path fill="#fff" d="M0 0h192v192H0z"/></clipPath></defs></svg>