<svg xmlns="http://www.w3.org/2000/svg" width="1000" height="1000" xmlns:v="https://vecta.io/nano"><rect width="1000" height="1000" rx="500" fill="#555"/><g transform="scale(4.032258)"><svg width="248" height="248"><svg width="248" height="248" fill="none"><path d="M124 5C58.278 5 5 58.278 5 124s53.278 119 119 119 119-53.278 119-119S189.722 5 124 5z" fill="#fff" stroke="#000" stroke-width="8" stroke-linejoin="round"/><g fill-rule="evenodd"><path d="M124.63 19.63c-57.99 0-105 47.01-105 105a105.14 105.14 0 0 0 3.608 27.388l15.443-22.776c2.628-3.875 8.456-3.343 10.415.857 1.039 2.229.839 4.856-.547 6.899l-20.153 29.695a104.15 104.15 0 0 0 3.043 6.359l35.621 3.641a7.02 7.02 0 0 1 5.637 4.016c1.959 4.2-1.38 9.007-6.038 8.529l-26.888-2.76c19.097 26.157 49.994 43.152 84.861 43.152 57.99 0 105-47.01 105-105 0-9.545-1.273-18.792-3.66-27.581l-15.773 23.263c-2.628 3.876-8.457 3.344-10.416-.857a7.02 7.02 0 0 1 .548-6.899l20.464-30.154a104.96 104.96 0 0 0-2.789-5.845l-36.186-3.699a7.02 7.02 0 0 1-5.638-4.016c-1.958-4.201 1.381-9.008 6.039-8.529l27.532 2.826C190.675 36.78 159.655 19.63 124.63 19.63zm0 38.339c8.418 0 15.242 6.824 15.242 15.242s-6.824 15.242-15.242 15.242-15.242-6.824-15.242-15.242 6.824-15.242 15.242-15.242zm49.85 45.502c-10.875 2.567-21.101 4.86-31.208 6.242-2.027.278-3.558 2.003-3.527 4.048.557 37.064 4.711 47.535 9.519 59.656l1.039 2.634a7.62 7.62 0 1 1-14.197 5.545l-1.127-2.859-.001-.003c-3.137-7.923-6.08-15.356-8.051-28.662-.146-.989-.991-1.732-1.992-1.732h-.609c-1 0-1.846.743-1.992 1.732-1.973 13.319-4.921 20.762-8.074 28.72l-1.105 2.804c-1.531 3.919-5.949 5.858-9.872 4.326s-5.857-5.951-4.325-9.871l1.048-2.658c4.799-12.099 8.953-22.573 9.51-59.631.031-2.046-1.5-3.771-3.527-4.048-10.107-1.382-20.333-3.676-31.208-6.243-3.641-.86-5.896-4.509-5.036-8.15s4.508-5.896 8.15-5.036c40.936 9.666 52.62 9.646 93.473 0 3.641-.859 7.29 1.395 8.15 5.036a6.78 6.78 0 0 1-5.037 8.15z" fill="#5e55bb"/><path d="M171.367 90.285c3.641-.859 7.29 1.395 8.15 5.036a6.78 6.78 0 0 1-5.037 8.15c-10.875 2.567-21.101 4.86-31.208 6.242-2.027.278-3.558 2.003-3.527 4.048.557 37.064 4.711 47.535 9.519 59.656l1.039 2.634a7.62 7.62 0 1 1-14.197 5.545l-1.127-2.859-.001-.003c-2.76-6.972-5.371-13.564-7.3-24.112l-.299-1.699-.347-2.155-.105-.696c-.146-.989-.991-1.732-1.992-1.732h-.609c-1 0-1.846.743-1.992 1.732l-.105.695-.347 2.156-.299 1.699c-1.932 10.562-4.548 17.167-7.323 24.17l-1.105 2.804c-1.531 3.919-5.949 5.858-9.872 4.326s-5.857-5.951-4.325-9.871l1.048-2.658c4.799-12.099 8.953-22.573 9.51-59.631.031-2.046-1.5-3.771-3.527-4.048-10.107-1.382-20.333-3.676-31.208-6.243-3.641-.86-5.896-4.509-5.036-8.15s4.508-5.896 8.15-5.036c40.936 9.666 52.62 9.646 93.473 0zm-52.624 93.494c-2.743 7.007-10.635 10.469-17.643 7.732s-10.468-10.637-7.731-17.643l.008-.019 1.053-2.668c2.376-5.992 4.438-11.205 6.033-19.392 1.562-8.015 2.703-19.04 3.025-36.37-9.863-1.44-19.792-3.678-30.085-6.109-6.866-1.621-11.118-8.501-9.497-15.368s8.501-11.118 15.368-9.497c14.069 3.322 24.411 5.429 33.536 6.417-5.682-3.812-9.421-10.295-9.421-17.651 0-11.732 9.511-21.242 21.242-21.242s21.242 9.51 21.242 21.242c0 7.358-3.741 13.842-9.424 17.654 9.13-.988 19.468-3.097 33.541-6.419a12.78 12.78 0 0 1 15.368 9.497v.001a12.78 12.78 0 0 1-9.498 15.367m-57.116 74.469l1.096-2.777c1.661-4.194 3.304-8.344 4.791-13.312 1.483 4.953 3.12 9.086 4.77 13.253v.002l1.117 2.834c2.747 7.012 10.641 10.467 17.644 7.732s10.468-10.636 7.731-17.643l-.008-.02-1.043-2.643c-2.381-6.004-4.445-11.221-6.041-19.41-1.564-8.018-2.704-19.043-3.026-36.376 9.863-1.441 19.792-3.679 30.085-6.109m18.485 12.681a13.02 13.02 0 0 1 1.02-12.805l18.349-27.036-32.505-3.322c-4.574-.467-8.54-3.319-10.465-7.449-3.89-8.342 2.707-17.997 12.089-17.034l12.822 1.316C177.658 37.132 152.487 25.63 124.63 25.63c-54.676 0-99 44.324-99 99 0 4.095.248 8.13.73 12.091l7.354-10.846c5.293-7.806 16.929-6.653 20.819 1.688a13.02 13.02 0 0 1-1.021 12.805l-18.257 26.9.072.151 32.341 3.305a13.02 13.02 0 0 1 10.465 7.449c3.89 8.341-2.707 17.996-12.089 17.033l-12.079-1.24c17.971 18.314 42.992 29.664 70.665 29.664 54.676 0 99-44.323 99-99 0-4.174-.258-8.285-.758-12.32l-7.709 11.369c-5.293 7.806-16.93 6.654-20.819-1.688zM44.975 193.043c19.256 22.401 47.799 36.587 79.655 36.587 57.99 0 105-47.01 105-105a105.59 105.59 0 0 0-1.825-19.595 104.51 104.51 0 0 0-1.835-7.986l-15.773 23.263c-2.628 3.876-8.457 3.344-10.416-.857a7.02 7.02 0 0 1 .548-6.899l20.464-30.154a104.96 104.96 0 0 0-2.789-5.845l-36.186-3.699a7.02 7.02 0 0 1-5.638-4.016c-1.958-4.201 1.381-9.008 6.039-8.529l27.532 2.826c-1.633-2.256-3.353-4.445-5.156-6.561C185.336 33.97 156.658 19.63 124.63 19.63c-57.99 0-105 47.01-105 105 0 6.622.613 13.102 1.786 19.384.505 2.706 1.114 5.375 1.822 8.004l15.443-22.776c2.628-3.875 8.456-3.343 10.415.857 1.039 2.229.839 4.856-.547 6.899l-20.153 29.695a104.15 104.15 0 0 0 3.043 6.359l35.621 3.641a7.02 7.02 0 0 1 5.637 4.016c1.959 4.2-1.38 9.007-6.038 8.529l-26.888-2.76a105.64 105.64 0 0 0 5.206 6.565zm94.898-119.832c0-8.418-6.824-15.242-15.242-15.242s-15.242 6.824-15.242 15.242 6.824 15.242 15.242 15.242 15.242-6.824 15.242-15.242z" fill="#000"/></g></svg></svg></g></svg>
